<?xml version="1.0" ?><!DOCTYPE svg  PUBLIC '-//W3C//DTD SVG 1.0//EN'  'http://www.w3.org/TR/2001/REC-SVG-20010904/DTD/svg10.dtd'><svg xmlns="http://www.w3.org/2000/svg" xmlns:xlink="http://www.w3.org/1999/xlink" version="1.0" id="Layer_1" width="60px" height="60px" viewBox="0 0 100 100" enable-background="new 0 0 100 100" xml:space="preserve"><path d="M90,11.666L88.333,10c-8.941,10.307-21.318,16.666-35,16.666v1.668c7.363,0,13.334,5.225,13.334,11.666  c0,3.77-3.522,7.012-8.652,8.717L55,36.666l-5,5l-5-5l-3.013,12.051c-5.135-1.705-8.654-4.947-8.654-8.717  c0-6.441,5.971-11.666,13.334-11.666v-1.668c-13.682,0-26.059-6.359-35-16.666L10,11.666C14.444,22.252,14.444,39.414,10,50  c8.819,0,15.972,7.461,15.972,16.667c7.057,0,12.778,5.97,12.778,13.333c5.293,0,9.583,4.479,9.583,10h3.334  c0-5.521,4.29-10,9.583-10c0-7.363,5.723-13.333,12.78-13.333C74.03,57.461,81.179,50,90,50C85.554,39.414,85.554,22.252,90,11.666z  "/></svg>