<svg width="33" height="25" viewBox="0 0 33 25" fill="none" xmlns="http://www.w3.org/2000/svg">
<path d="M3.60938 0.125H29.3906C31.383 0.125 33 1.742 33 3.73438V21.2656C33 22.2229 32.6197 23.141 31.9428 23.8178C31.266 24.4947 30.3479 24.875 29.3906 24.875H3.60938C2.65211 24.875 1.73405 24.4947 1.05716 23.8178C0.380272 23.141 0 22.2229 0 21.2656L0 3.73438C0 1.742 1.617 0.125 3.60938 0.125ZM3.09375 21.2677C3.09375 21.5523 3.32475 21.7833 3.60938 21.7833H29.3906C29.5274 21.7833 29.6585 21.729 29.7552 21.6323C29.8519 21.5356 29.9062 21.4044 29.9062 21.2677V7.98106L17.2838 15.3813C17.0462 15.5209 16.7756 15.5946 16.5 15.5946C16.2244 15.5946 15.9538 15.5209 15.7162 15.3813L3.09375 7.98106V21.2677ZM29.9062 4.39438V3.73438C29.9062 3.59762 29.8519 3.46647 29.7552 3.36977C29.6585 3.27307 29.5274 3.21875 29.3906 3.21875H3.60938C3.47262 3.21875 3.34147 3.27307 3.24477 3.36977C3.14807 3.46647 3.09375 3.59762 3.09375 3.73438V4.39438L16.5 12.2525L29.9062 4.39438Z" fill="#4B4B4B"/>
</svg>
