<svg width="50" height="50" viewBox="0 0 64 64" fill="none" xmlns="http://www.w3.org/2000/svg">
<path d="M29 7C25.686 7 23 9.686 23 13H15C11.686 13 9 15.686 9 19V26.1738C11.661 26.7498 22.639 29 32 29C41.361 29 52.339 26.7498 55 26.1738V19C55 15.686 52.314 13 49 13H41C41 9.686 38.314 7 35 7H29ZM29 11H35C36.104 11 37 11.895 37 13H27C27 11.895 27.896 11 29 11ZM9 30.2617V45C9 48.314 11.686 51 15 51H49C52.314 51 55 48.314 55 45V30.2617C51.856 30.9167 43.863 32.4488 36 32.8828V33C36 34.105 35.104 35 34 35H29C27.896 35 27 34.105 27 33V32.8223C19.468 32.3203 12.011 30.8887 9 30.2617Z" fill="rgb(165, 188, 184)"/>
</svg>
