<svg width="51" height="51" viewBox="0 0 51 51" fill="none" xmlns="http://www.w3.org/2000/svg">
<path d="M35.5833 20.3333C35.5833 23.0297 34.5122 25.6156 32.6056 27.5222C30.699 29.4288 28.113 30.5 25.4167 30.5C22.7203 30.5 20.1344 29.4288 18.2277 27.5222C16.3211 25.6156 15.25 23.0297 15.25 20.3333C15.25 17.6369 16.3211 15.051 18.2277 13.1444C20.1344 11.2378 22.7203 10.1666 25.4167 10.1666C28.113 10.1666 30.699 11.2378 32.6056 13.1444C34.5122 15.051 35.5833 17.6369 35.5833 20.3333Z" fill="#4B4B4B"/>
<path fill-rule="evenodd" clip-rule="evenodd" d="M24.3797 50.813C10.8237 50.2691 0 39.1061 0 25.4167C0 11.379 11.379 0 25.4167 0C39.4543 0 50.8333 11.379 50.8333 25.4167C50.8333 39.4543 39.4543 50.8333 25.4167 50.8333C25.3006 50.8341 25.1845 50.8341 25.0685 50.8333C24.8384 50.8333 24.6084 50.8257 24.3797 50.813ZM9.10679 41.4546C8.91676 40.9089 8.85207 40.3273 8.91754 39.7532C8.98301 39.179 9.17695 38.627 9.48496 38.138C9.79298 37.6491 10.2072 37.2358 10.6968 36.9288C11.1864 36.6219 11.7388 36.4291 12.3131 36.3649C22.2205 35.2682 28.6738 35.3673 38.5329 36.3878C39.108 36.4477 39.6618 36.638 40.1522 36.9443C40.6426 37.2505 41.0566 37.6647 41.3628 38.1551C41.6689 38.6456 41.8591 39.1995 41.9188 39.7745C41.9786 40.3496 41.9063 40.9307 41.7075 41.4736C45.9329 37.1984 48.2992 31.4276 48.2917 25.4167C48.2917 12.7833 38.05 2.54167 25.4167 2.54167C12.7833 2.54167 2.54167 12.7833 2.54167 25.4167C2.54167 31.6641 5.04648 37.3269 9.10679 41.4546Z" fill="#4B4B4B"/>
</svg>
